P2
# Created by GIMP version 2.10.14 PNM plug-in
26 26
255
0
0
0
0
0
0
0
0
0
0
255
255
255
255
255
255
0
0
0
0
0
0
0
0
0
0
0
0
0
0
0
0
0
255
255
255
0
0
0
0
0
0
255
255
255
0
0
0
0
0
0
0
0
0
0
0
0
0
255
0
0
0
0
0
0
0
0
0
0
0
0
255
0
0
0
0
0
0
0
0
0
0
255
255
0
0
0
0
0
0
0
0
0
0
0
0
0
0
255
255
0
0
0
0
0
0
0
255
0
0
0
0
0
0
255
255
255
255
255
255
0
0
0
0
0
0
255
0
0
0
0
0
0
255
0
0
0
0
255
255
0
0
0
0
0
0
255
255
0
0
0
0
255
0
0
0
0
0
255
0
0
0
0
255
0
0
0
0
0
0
0
0
0
0
255
0
0
0
0
255
0
0
0
255
0
0
0
0
255
0
0
0
0
0
0
0
0
0
0
0
0
255
0
0
0
0
255
0
0
255
0
0
0
255
0
0
0
0
0
255
255
255
255
0
0
0
0
0
255
0
0
0
255
0
0
255
0
0
0
255
0
0
0
0
255
0
0
0
0
255
0
0
0
0
255
0
0
0
255
0
255
0
0
0
255
0
0
0
0
255
0
0
0
0
0
0
255
0
0
0
0
255
0
0
0
255
255
0
0
0
255
0
0
0
255
0
0
0
0
0
0
0
0
255
0
0
0
255
0
0
0
255
255
0
0
0
255
0
0
0
255
0
0
0
255
255
0
0
0
255
0
0
0
255
0
0
0
255
255
0
0
0
255
0
0
0
255
0
0
0
255
255
0
0
0
255
0
0
0
255
0
0
0
255
255
0
0
0
255
0
0
0
255
0
0
0
0
0
0
0
0
255
0
0
0
255
0
0
0
255
255
0
0
0
255
0
0
0
0
255
0
0
0
0
0
0
255
0
0
0
0
255
0
0
0
255
0
255
0
0
0
255
0
0
0
0
255
0
0
0
0
255
0
0
0
0
255
0
0
0
255
0
0
255
0
0
0
255
0
0
0
0
0
255
255
255
255
0
0
0
0
0
255
0
0
0
255
0
0
255
0
0
0
0
255
0
0
0
0
0
0
0
0
0
0
0
0
255
0
0
0
0
255
0
0
0
255
0
0
0
0
255
0
0
0
0
0
0
0
0
0
0
255
0
0
0
0
255
0
0
0
0
0
255
0
0
0
0
255
255
0
0
0
0
0
0
255
255
0
0
0
0
255
0
0
0
0
0
0
255
0
0
0
0
0
0
255
255
255
255
255
255
0
0
0
0
0
0
255
0
0
0
0
0
0
0
255
255
0
0
0
0
0
0
0
0
0
0
0
0
0
0
255
255
0
0
0
0
0
0
0
0
0
0
255
0
0
0
0
0
0
0
0
0
0
0
0
255
0
0
0
0
0
0
0
0
0
0
0
0
0
255
255
255
0
0
0
0
0
0
255
255
255
0
0
0
0
0
0
0
0
0
0
0
0
0
0
0
0
0
255
255
255
255
255
255
0
0
0
0
0
0
0
0
0
0
